<svg width="16" height="16" viewBox="0 0 16 16" fill="none" xmlns="http://www.w3.org/2000/svg">
<path d="M5.752 11.688C5.568 11.824 5.34 11.928 5.068 12C4.804 12.064 4.528 12.096 4.24 12.096C3.464 12.096 2.868 11.9 2.452 11.508C2.036 11.116 1.828 10.54 1.828 9.78V4.116H3.7V5.688H5.296V7.128H3.7V9.756C3.7 10.028 3.768 10.24 3.904 10.392C4.04 10.536 4.236 10.608 4.492 10.608C4.78 10.608 5.036 10.528 5.26 10.368L5.752 11.688ZM10.7333 5.448C11.5333 5.448 12.1773 5.688 12.6653 6.168C13.1613 6.648 13.4093 7.36 13.4093 8.304V12H11.5373V8.592C11.5373 8.08 11.4253 7.7 11.2013 7.452C10.9773 7.196 10.6533 7.068 10.2293 7.068C9.75731 7.068 9.38131 7.216 9.10131 7.512C8.82131 7.8 8.68131 8.232 8.68131 8.808V12H6.80931V3.096H8.68131V6.216C8.92931 5.968 9.22931 5.78 9.58131 5.652C9.93331 5.516 10.3173 5.448 10.7333 5.448Z" fill="white"/>
</svg>
