<svg width="16" height="16" viewBox="0 0 16 16" fill="none" xmlns="http://www.w3.org/2000/svg">
<mask id="path-1-outside-1_23_122" maskUnits="userSpaceOnUse" x="0" y="-1" width="16" height="18" fill="black">
<rect fill="white" y="-1" width="16" height="18"/>
<path d="M14.1 13.8C13.4333 14.2533 12.5933 14.6067 11.58 14.86C10.58 15.1133 9.51333 15.24 8.38 15.24C6.96667 15.24 5.76667 15.0667 4.78 14.72C3.79333 14.36 3.04667 13.8667 2.54 13.24C2.03333 12.6 1.78 11.8733 1.78 11.06C1.78 10.3133 1.98667 9.65333 2.4 9.08C2.81333 8.50667 3.38 8.08 4.1 7.8C3.55333 7.50667 3.12667 7.10667 2.82 6.6C2.52667 6.09333 2.38 5.52667 2.38 4.9C2.38 4.14 2.61333 3.44667 3.08 2.82C3.54667 2.19333 4.25333 1.69333 5.2 1.32C6.14667 0.946666 7.30667 0.76 8.68 0.76C9.58667 0.76 10.4733 0.853333 11.34 1.04C12.2067 1.21333 12.96 1.45333 13.6 1.76L12.7 4.24C11.4733 3.66667 10.1733 3.38 8.8 3.38C7.76 3.38 6.97333 3.54 6.44 3.86C5.92 4.16667 5.66 4.58667 5.66 5.12C5.66 5.61333 5.83333 5.99333 6.18 6.26C6.54 6.51333 7.08 6.64 7.8 6.64H11.62V9.2H7.6C6.78667 9.2 6.16 9.34 5.72 9.62C5.28 9.9 5.06 10.3067 5.06 10.84C5.06 11.4 5.34 11.84 5.9 12.16C6.47333 12.4667 7.34667 12.62 8.52 12.62C9.34667 12.62 10.1733 12.5133 11 12.3C11.8267 12.0733 12.5267 11.76 13.1 11.36L14.1 13.8Z"/>
</mask>
<path d="M14.1 13.8C13.4333 14.2533 12.5933 14.6067 11.58 14.86C10.58 15.1133 9.51333 15.24 8.38 15.24C6.96667 15.24 5.76667 15.0667 4.78 14.72C3.79333 14.36 3.04667 13.8667 2.54 13.24C2.03333 12.6 1.78 11.8733 1.78 11.06C1.78 10.3133 1.98667 9.65333 2.4 9.08C2.81333 8.50667 3.38 8.08 4.1 7.8C3.55333 7.50667 3.12667 7.10667 2.82 6.6C2.52667 6.09333 2.38 5.52667 2.38 4.9C2.38 4.14 2.61333 3.44667 3.08 2.82C3.54667 2.19333 4.25333 1.69333 5.2 1.32C6.14667 0.946666 7.30667 0.76 8.68 0.76C9.58667 0.76 10.4733 0.853333 11.34 1.04C12.2067 1.21333 12.96 1.45333 13.6 1.76L12.7 4.24C11.4733 3.66667 10.1733 3.38 8.8 3.38C7.76 3.38 6.97333 3.54 6.44 3.86C5.92 4.16667 5.66 4.58667 5.66 5.12C5.66 5.61333 5.83333 5.99333 6.18 6.26C6.54 6.51333 7.08 6.64 7.8 6.64H11.62V9.2H7.6C6.78667 9.2 6.16 9.34 5.72 9.62C5.28 9.9 5.06 10.3067 5.06 10.84C5.06 11.4 5.34 11.84 5.9 12.16C6.47333 12.4667 7.34667 12.62 8.52 12.62C9.34667 12.62 10.1733 12.5133 11 12.3C11.8267 12.0733 12.5267 11.76 13.1 11.36L14.1 13.8Z" fill="white"/>
<path d="M14.1 13.8L14.6623 14.6269L15.3328 14.171L15.0253 13.4208L14.1 13.8ZM11.58 14.86L11.3375 13.8899L11.3344 13.8906L11.58 14.86ZM4.78 14.72L4.43721 15.6595L4.44851 15.6635L4.78 14.72ZM2.54 13.24L1.75591 13.8607L1.76237 13.8687L2.54 13.24ZM2.4 9.08L3.21118 9.6648L3.21118 9.6648L2.4 9.08ZM4.1 7.8L4.46245 8.732L6.48561 7.94522L4.57282 6.91884L4.1 7.8ZM2.82 6.6L1.95457 7.10104L1.95946 7.10947L1.9645 7.1178L2.82 6.6ZM3.08 2.82L2.27796 2.22273L2.27796 2.22273L3.08 2.82ZM5.2 1.32L4.83313 0.389727L4.83313 0.389727L5.2 1.32ZM11.34 1.04L11.1294 2.01758L11.1367 2.01913L11.1439 2.02058L11.34 1.04ZM13.6 1.76L14.54 2.10113L14.849 1.24962L14.0321 0.858183L13.6 1.76ZM12.7 4.24L12.2766 5.14593L13.267 5.60887L13.64 4.58113L12.7 4.24ZM6.44 3.86L6.948 4.72139L6.9545 4.71749L6.44 3.86ZM6.18 6.26L5.57029 7.05262L5.58713 7.06558L5.60451 7.07781L6.18 6.26ZM11.62 6.64H12.62V5.64H11.62V6.64ZM11.62 9.2V10.2H12.62V9.2H11.62ZM5.72 9.62L5.18312 8.77634L5.18312 8.77634L5.72 9.62ZM5.9 12.16L5.40386 13.0282L5.41601 13.0352L5.42835 13.0418L5.9 12.16ZM11 12.3L11.2499 13.2683L11.2572 13.2664L11.2644 13.2644L11 12.3ZM13.1 11.36L14.0253 10.9808L13.5518 9.82546L12.5278 10.5399L13.1 11.36ZM13.5377 12.9731C12.9924 13.3439 12.2686 13.6571 11.3375 13.8899L11.8225 15.8301C12.918 15.5563 13.8743 15.1628 14.6623 14.6269L13.5377 12.9731ZM11.3344 13.8906C10.4222 14.1217 9.43858 14.24 8.38 14.24V16.24C9.58809 16.24 10.7378 16.1049 11.8256 15.8294L11.3344 13.8906ZM8.38 14.24C7.04252 14.24 5.96155 14.0752 5.11149 13.7765L4.44851 15.6635C5.57178 16.0581 6.89082 16.24 8.38 16.24V14.24ZM5.12276 13.7806C4.256 13.4643 3.68056 13.0602 3.31763 12.6113L1.76237 13.8687C2.41278 14.6732 3.33067 15.2557 4.43724 15.6594L5.12276 13.7806ZM3.32405 12.6193C2.95669 12.1553 2.78 11.6471 2.78 11.06H0.78C0.78 12.0995 1.10998 13.0447 1.75595 13.8607L3.32405 12.6193ZM2.78 11.06C2.78 10.5107 2.92776 10.0579 3.21118 9.6648L1.58882 8.4952C1.04557 9.24874 0.78 10.116 0.78 11.06H2.78ZM3.21118 9.6648C3.50114 9.26259 3.90499 8.94879 4.46245 8.732L3.73755 6.868C2.85501 7.21121 2.12553 7.75074 1.58882 8.4952L3.21118 9.6648ZM4.57282 6.91884C4.17612 6.70598 3.88495 6.42824 3.6755 6.0822L1.9645 7.1178C2.36838 7.78509 2.93055 8.30735 3.62718 8.68116L4.57282 6.91884ZM3.68543 6.09896C3.48646 5.75529 3.38 5.36355 3.38 4.9H1.38C1.38 5.68979 1.56688 6.43138 1.95457 7.10104L3.68543 6.09896ZM3.38 4.9C3.38 4.3616 3.54003 3.87654 3.88204 3.41727L2.27796 2.22273C1.68663 3.0168 1.38 3.9184 1.38 4.9H3.38ZM3.88204 3.41727C4.20856 2.9788 4.74205 2.57555 5.56687 2.25027L4.83313 0.389727C3.76462 0.811111 2.88478 1.40786 2.27796 2.22273L3.88204 3.41727ZM5.56687 2.25027C6.36368 1.93604 7.39104 1.76 8.68 1.76V-0.24C7.2223 -0.24 5.92966 -0.0427056 4.83313 0.389727L5.56687 2.25027ZM8.68 1.76C9.5175 1.76 10.3335 1.84615 11.1294 2.01758L11.5506 0.0624179C10.6131 -0.139488 9.65584 -0.24 8.68 -0.24V1.76ZM11.1439 2.02058C11.948 2.18139 12.6187 2.39865 13.1679 2.66181L14.0321 0.858183C13.3013 0.508018 12.4654 0.245272 11.5361 0.0594189L11.1439 2.02058ZM12.66 1.41886L11.76 3.89886L13.64 4.58113L14.54 2.10113L12.66 1.41886ZM13.1234 3.33407C11.7623 2.69787 10.3175 2.38 8.8 2.38V4.38C10.0292 4.38 11.1844 4.63546 12.2766 5.14593L13.1234 3.33407ZM8.8 2.38C7.68699 2.38 6.68635 2.546 5.9255 3.00251L6.9545 4.71749C7.26032 4.534 7.83301 4.38 8.8 4.38V2.38ZM5.93202 2.99863C5.15529 3.4567 4.66 4.18014 4.66 5.12H6.66C6.66 4.99319 6.68471 4.87663 6.94799 4.72137L5.93202 2.99863ZM4.66 5.12C4.66 5.87849 4.94372 6.57065 5.57029 7.05262L6.78971 5.46738C6.72295 5.41602 6.66 5.34817 6.66 5.12H4.66ZM5.60451 7.07781C6.20958 7.5036 6.99327 7.64 7.8 7.64V5.64C7.16673 5.64 6.87042 5.52307 6.75549 5.44219L5.60451 7.07781ZM7.8 7.64H11.62V5.64H7.8V7.64ZM10.62 6.64V9.2H12.62V6.64H10.62ZM11.62 8.2H7.6V10.2H11.62V8.2ZM7.6 8.2C6.69434 8.2 5.84988 8.35204 5.18312 8.77634L6.25688 10.4637C6.47012 10.328 6.879 10.2 7.6 10.2V8.2ZM5.18312 8.77634C4.44684 9.24488 4.06 9.97416 4.06 10.84H6.06C6.06 10.6392 6.11316 10.5551 6.25688 10.4637L5.18312 8.77634ZM4.06 10.84C4.06 11.8197 4.58895 12.5626 5.40386 13.0282L6.39614 11.2918C6.09105 11.1174 6.06 10.9803 6.06 10.84H4.06ZM5.42835 13.0418C6.22125 13.4659 7.29482 13.62 8.52 13.62V11.62C7.39851 11.62 6.72541 11.4674 6.37165 11.2782L5.42835 13.0418ZM8.52 13.62C9.43369 13.62 10.3443 13.502 11.2499 13.2683L10.7501 11.3317C10.0024 11.5247 9.25964 11.62 8.52 11.62V13.62ZM11.2644 13.2644C12.1771 13.0141 12.9868 12.6583 13.6722 12.1801L12.5278 10.5399C12.0665 10.8617 11.4762 11.1325 10.7356 11.3356L11.2644 13.2644ZM12.1747 11.7392L13.1747 14.1792L15.0253 13.4208L14.0253 10.9808L12.1747 11.7392Z" fill="#22333B" mask="url(#path-1-outside-1_23_122)"/>
</svg>
