<svg width="16" height="16" viewBox="0 0 16 16" fill="none" xmlns="http://www.w3.org/2000/svg">
<mask id="path-1-outside-1_23_122" maskUnits="userSpaceOnUse" x="3" y="3" width="10" height="11" fill="black">
<rect fill="white" x="3" y="3" width="10" height="11"/>
<path d="M11.205 11.34C10.8383 11.5893 10.3763 11.7837 9.819 11.923C9.269 12.0623 8.68233 12.132 8.059 12.132C7.28167 12.132 6.62167 12.0367 6.079 11.846C5.53633 11.648 5.12567 11.3767 4.847 11.032C4.56833 10.68 4.429 10.2803 4.429 9.833C4.429 9.42233 4.54267 9.05933 4.77 8.744C4.99733 8.42867 5.309 8.194 5.705 8.04C5.40433 7.87867 5.16967 7.65867 5.001 7.38C4.83967 7.10133 4.759 6.78967 4.759 6.445C4.759 6.027 4.88733 5.64567 5.144 5.301C5.40067 4.95633 5.78933 4.68133 6.31 4.476C6.83067 4.27067 7.46867 4.168 8.224 4.168C8.72267 4.168 9.21033 4.21933 9.687 4.322C10.1637 4.41733 10.578 4.54933 10.93 4.718L10.435 6.082C9.76033 5.76667 9.04533 5.609 8.29 5.609C7.718 5.609 7.28533 5.697 6.992 5.873C6.706 6.04167 6.563 6.27267 6.563 6.566C6.563 6.83733 6.65833 7.04633 6.849 7.193C7.047 7.33233 7.344 7.402 7.74 7.402H9.841V8.81H7.63C7.18267 8.81 6.838 8.887 6.596 9.041C6.354 9.195 6.233 9.41867 6.233 9.712C6.233 10.02 6.387 10.262 6.695 10.438C7.01033 10.6067 7.49067 10.691 8.136 10.691C8.59067 10.691 9.04533 10.6323 9.5 10.515C9.95467 10.3903 10.3397 10.218 10.655 9.998L11.205 11.34Z"/>
</mask>
<path d="M11.205 11.34C10.8383 11.5893 10.3763 11.7837 9.819 11.923C9.269 12.0623 8.68233 12.132 8.059 12.132C7.28167 12.132 6.62167 12.0367 6.079 11.846C5.53633 11.648 5.12567 11.3767 4.847 11.032C4.56833 10.68 4.429 10.2803 4.429 9.833C4.429 9.42233 4.54267 9.05933 4.77 8.744C4.99733 8.42867 5.309 8.194 5.705 8.04C5.40433 7.87867 5.16967 7.65867 5.001 7.38C4.83967 7.10133 4.759 6.78967 4.759 6.445C4.759 6.027 4.88733 5.64567 5.144 5.301C5.40067 4.95633 5.78933 4.68133 6.31 4.476C6.83067 4.27067 7.46867 4.168 8.224 4.168C8.72267 4.168 9.21033 4.21933 9.687 4.322C10.1637 4.41733 10.578 4.54933 10.93 4.718L10.435 6.082C9.76033 5.76667 9.04533 5.609 8.29 5.609C7.718 5.609 7.28533 5.697 6.992 5.873C6.706 6.04167 6.563 6.27267 6.563 6.566C6.563 6.83733 6.65833 7.04633 6.849 7.193C7.047 7.33233 7.344 7.402 7.74 7.402H9.841V8.81H7.63C7.18267 8.81 6.838 8.887 6.596 9.041C6.354 9.195 6.233 9.41867 6.233 9.712C6.233 10.02 6.387 10.262 6.695 10.438C7.01033 10.6067 7.49067 10.691 8.136 10.691C8.59067 10.691 9.04533 10.6323 9.5 10.515C9.95467 10.3903 10.3397 10.218 10.655 9.998L11.205 11.34Z" fill="white"/>
<path d="M11.205 11.34L11.7673 12.1669L12.4378 11.711L12.1303 10.9608L11.205 11.34ZM9.819 11.923L9.57646 10.9529L9.57342 10.9536L9.819 11.923ZM6.079 11.846L5.73621 12.7855L5.74751 12.7895L6.079 11.846ZM4.847 11.032L4.06291 11.6527L4.06937 11.6607L4.847 11.032ZM4.77 8.744L5.58118 9.3288L5.58118 9.3288L4.77 8.744ZM5.705 8.04L6.06745 8.972L8.09061 8.18522L6.17782 7.15884L5.705 8.04ZM5.001 7.38L4.13557 7.88104L4.14046 7.88947L4.1455 7.8978L5.001 7.38ZM5.144 5.301L4.34196 4.70373L4.34196 4.70373L5.144 5.301ZM6.31 4.476L5.94313 3.54573L5.94313 3.54573L6.31 4.476ZM9.687 4.322L9.47644 5.29958L9.48365 5.30113L9.49088 5.30258L9.687 4.322ZM10.93 4.718L11.87 5.05913L12.179 4.20762L11.3621 3.81618L10.93 4.718ZM10.435 6.082L10.0116 6.98793L11.002 7.45087L11.375 6.42313L10.435 6.082ZM6.992 5.873L7.5 6.73439L7.5065 6.73049L6.992 5.873ZM6.849 7.193L6.23929 7.98562L6.25613 7.99858L6.27351 8.01081L6.849 7.193ZM9.841 7.402H10.841V6.402H9.841V7.402ZM9.841 8.81V9.81H10.841V8.81H9.841ZM6.596 9.041L6.05912 8.19734L6.05912 8.19734L6.596 9.041ZM6.695 10.438L6.19886 11.3062L6.21101 11.3132L6.22335 11.3198L6.695 10.438ZM9.5 10.515L9.74988 11.4833L9.75717 11.4814L9.76443 11.4794L9.5 10.515ZM10.655 9.998L11.5803 9.61878L11.1068 8.46346L10.0828 9.17787L10.655 9.998ZM10.6427 10.5131C10.3974 10.6799 10.0516 10.8341 9.57646 10.9529L10.0615 12.8931C10.701 12.7333 11.2793 12.4988 11.7673 12.1669L10.6427 10.5131ZM9.57342 10.9536C9.11115 11.0707 8.60758 11.132 8.059 11.132V13.132C8.75709 13.132 9.42685 13.0539 10.0646 12.8924L9.57342 10.9536ZM8.059 11.132C7.35752 11.132 6.81655 11.0452 6.41049 10.9025L5.74751 12.7895C6.42678 13.0281 7.20582 13.132 8.059 13.132V11.132ZM6.42176 10.9066C5.999 10.7523 5.75956 10.5702 5.62463 10.4033L4.06937 11.6607C4.49178 12.1832 5.07367 12.5437 5.73624 12.7854L6.42176 10.9066ZM5.63105 10.4113C5.49169 10.2353 5.429 10.0541 5.429 9.833H3.429C3.429 10.5065 3.64498 11.1247 4.06295 11.6527L5.63105 10.4113ZM5.429 9.833C5.429 9.61967 5.48376 9.46392 5.58118 9.3288L3.95882 8.1592C3.60157 8.65474 3.429 9.22499 3.429 9.833H5.429ZM5.58118 9.3288C5.68514 9.18459 5.83399 9.06279 6.06745 8.972L5.34255 7.108C4.78401 7.32521 4.30953 7.67274 3.95882 8.1592L5.58118 9.3288ZM6.17782 7.15884C6.02712 7.07798 5.92795 6.98024 5.8565 6.8622L4.1455 7.8978C4.41138 8.33709 4.78155 8.67935 5.23218 8.92116L6.17782 7.15884ZM5.86643 6.87896C5.79946 6.76329 5.759 6.62655 5.759 6.445H3.759C3.759 6.95279 3.87988 7.43938 4.13557 7.88104L5.86643 6.87896ZM5.759 6.445C5.759 6.2486 5.81403 6.07554 5.94604 5.89827L4.34196 4.70373C3.96063 5.2158 3.759 5.8054 3.759 6.445H5.759ZM5.94604 5.89827C6.06256 5.7418 6.27805 5.56356 6.67687 5.40627L5.94313 3.54573C5.30062 3.79911 4.73878 4.17086 4.34196 4.70373L5.94604 5.89827ZM6.67687 5.40627C7.04768 5.26004 7.55304 5.168 8.224 5.168V3.168C7.3843 3.168 6.61366 3.28129 5.94313 3.54573L6.67687 5.40627ZM8.224 5.168C8.6535 5.168 9.07053 5.21215 9.47644 5.29958L9.89756 3.34442C9.35014 3.22651 8.79184 3.168 8.224 3.168V5.168ZM9.49088 5.30258C9.90495 5.38539 10.2367 5.49465 10.4979 5.61982L11.3621 3.81618C10.9193 3.60402 10.4224 3.44927 9.88312 3.34142L9.49088 5.30258ZM9.98999 4.37686L9.49499 5.74087L11.375 6.42313L11.87 5.05913L9.98999 4.37686ZM10.8584 5.17607C10.0493 4.79787 9.1895 4.609 8.29 4.609V6.609C8.90116 6.609 9.47141 6.73546 10.0116 6.98793L10.8584 5.17607ZM8.29 4.609C7.64499 4.609 6.99835 4.703 6.4775 5.01551L7.5065 6.73049C7.57232 6.691 7.79101 6.609 8.29 6.609V4.609ZM6.48402 5.01163C5.94129 5.3317 5.563 5.86614 5.563 6.566H7.563C7.563 6.57453 7.56186 6.59408 7.55458 6.6208C7.54715 6.64804 7.5354 6.67505 7.52052 6.6991C7.48982 6.7487 7.46592 6.75446 7.49999 6.73437L6.48402 5.01163ZM5.563 6.566C5.563 7.10249 5.76872 7.62365 6.23929 7.98562L7.45871 6.40038C7.48642 6.42169 7.52103 6.4602 7.54432 6.51124C7.56587 6.5585 7.563 6.58412 7.563 6.566H5.563ZM6.27351 8.01081C6.71658 8.3226 7.25727 8.402 7.74 8.402V6.402C7.59744 6.402 7.50393 6.38915 7.44862 6.37618C7.39357 6.36326 7.39549 6.35478 7.42449 6.37519L6.27351 8.01081ZM7.74 8.402H9.841V6.402H7.74V8.402ZM8.841 7.402V8.81H10.841V7.402H8.841ZM9.841 7.81H7.63V9.81H9.841V7.81ZM7.63 7.81C7.09034 7.81 6.52788 7.89904 6.05912 8.19734L7.13288 9.88466C7.14812 9.87496 7.275 9.81 7.63 9.81V7.81ZM6.05912 8.19734C5.52084 8.53988 5.233 9.08616 5.233 9.712H7.233C7.233 9.70578 7.23324 9.74472 7.20329 9.80007C7.17283 9.85638 7.13686 9.88212 7.13288 9.88466L6.05912 8.19734ZM5.233 9.712C5.233 10.4397 5.63595 10.9846 6.19886 11.3062L7.19114 9.56976C7.14532 9.54358 7.16368 9.54287 7.19216 9.58762C7.20608 9.6095 7.21752 9.63487 7.22484 9.661C7.23201 9.68661 7.233 9.70497 7.233 9.712H5.233ZM6.22335 11.3198C6.75825 11.6059 7.43882 11.691 8.136 11.691V9.691C7.54251 9.691 7.26241 9.60744 7.16665 9.55622L6.22335 11.3198ZM8.136 11.691C8.67769 11.691 9.21627 11.621 9.74988 11.4833L9.25012 9.54672C8.87439 9.64368 8.50364 9.691 8.136 9.691V11.691ZM9.76443 11.4794C10.3051 11.3311 10.7998 11.1163 11.2272 10.8181L10.0828 9.17787C9.87953 9.3197 9.60419 9.44952 9.23557 9.5506L9.76443 11.4794ZM9.7297 10.3772L10.2797 11.7192L12.1303 10.9608L11.5803 9.61878L9.7297 10.3772Z" fill="#22333B" mask="url(#path-1-outside-1_23_122)"/>
</svg>
