<svg width="16" height="16" viewBox="0 0 16 16" fill="none" xmlns="http://www.w3.org/2000/svg">
<path d="M13.135 12.98C12.5683 13.3653 11.8543 13.6657 10.993 13.881C10.143 14.0963 9.23633 14.204 8.273 14.204C7.07167 14.204 6.05167 14.0567 5.213 13.762C4.37433 13.456 3.73967 13.0367 3.309 12.504C2.87833 11.96 2.663 11.3423 2.663 10.651C2.663 10.0163 2.83867 9.45533 3.19 8.968C3.54133 8.48067 4.023 8.118 4.635 7.88C4.17033 7.63067 3.80767 7.29067 3.547 6.86C3.29767 6.42933 3.173 5.94767 3.173 5.415C3.173 4.769 3.37133 4.17967 3.768 3.647C4.16467 3.11433 4.76533 2.68933 5.57 2.372C6.37467 2.05467 7.36067 1.896 8.528 1.896C9.29867 1.896 10.0523 1.97533 10.789 2.134C11.5257 2.28133 12.166 2.48533 12.71 2.746L11.945 4.854C10.9023 4.36667 9.79733 4.123 8.63 4.123C7.746 4.123 7.07733 4.259 6.624 4.531C6.182 4.79167 5.961 5.14867 5.961 5.602C5.961 6.02133 6.10833 6.34433 6.403 6.571C6.709 6.78633 7.168 6.894 7.78 6.894H11.027V9.07H7.61C6.91867 9.07 6.386 9.189 6.012 9.427C5.638 9.665 5.451 10.0107 5.451 10.464C5.451 10.94 5.689 11.314 6.165 11.586C6.65233 11.8467 7.39467 11.977 8.392 11.977C9.09467 11.977 9.79733 11.8863 10.5 11.705C11.2027 11.5123 11.7977 11.246 12.285 10.906L13.135 12.98Z" fill="white"/>
</svg>
